<svg width="105" height="24" viewBox="0 0 105 24" fill="none" xmlns="http://www.w3.org/2000/svg">
<path d="M36.892 15.444H31.654L30.754 18H28.612L33.094 5.472H35.47L39.952 18H37.792L36.892 15.444ZM36.316 13.77L34.282 7.956L32.23 13.77H36.316ZM42.9628 4.68V18H40.9108V4.68H42.9628ZM53.7569 12.798C53.7569 13.17 53.7329 13.506 53.6849 13.806H46.1069C46.1669 14.598 46.4609 15.234 46.9889 15.714C47.5169 16.194 48.1649 16.434 48.9329 16.434C50.0369 16.434 50.8169 15.972 51.2729 15.048H53.4869C53.1869 15.96 52.6409 16.71 51.8489 17.298C51.0689 17.874 50.0969 18.162 48.9329 18.162C47.9849 18.162 47.1329 17.952 46.3769 17.532C45.6329 17.1 45.0449 16.5 44.6129 15.732C44.1929 14.952 43.9829 14.052 43.9829 13.032C43.9829 12.012 44.1869 11.118 44.5949 10.35C45.0149 9.57 45.5969 8.97 46.3409 8.55C47.0969 8.13 47.9609 7.92 48.9329 7.92C49.8689 7.92 50.7029 8.124 51.4349 8.532C52.1669 8.94 52.7369 9.516 53.1449 10.26C53.5529 10.992 53.7569 11.838 53.7569 12.798ZM51.6149 12.15C51.6029 11.394 51.3329 10.788 50.8049 10.332C50.2769 9.876 49.6229 9.648 48.8429 9.648C48.1349 9.648 47.5289 9.876 47.0249 10.332C46.5209 10.776 46.2209 11.382 46.1249 12.15H51.6149ZM59.0343 12.978L62.2383 18H59.9163L57.7743 14.634L55.7583 18H53.6163L56.8203 13.122L53.6163 8.082H55.9383L58.0803 11.448L60.0963 8.082H62.2383L59.0343 12.978ZM70.1407 5.49V7.164H64.8307V10.854H68.9707V12.528H64.8307V18H62.7787V5.49H70.1407ZM72.0963 6.768C71.7243 6.768 71.4123 6.642 71.1603 6.39C70.9083 6.138 70.7823 5.826 70.7823 5.454C70.7823 5.082 70.9083 4.77 71.1603 4.518C71.4123 4.266 71.7243 4.14 72.0963 4.14C72.4563 4.14 72.7623 4.266 73.0143 4.518C73.2663 4.77 73.3923 5.082 73.3923 5.454C73.3923 5.826 73.2663 6.138 73.0143 6.39C72.7623 6.642 72.4563 6.768 72.0963 6.768ZM73.1043 8.082V18H71.0523V8.082H73.1043ZM76.8604 4.68V18H74.8084V4.68H76.8604ZM90.5705 7.92C91.3505 7.92 92.0465 8.082 92.6585 8.406C93.2825 8.73 93.7685 9.21 94.1165 9.846C94.4765 10.482 94.6565 11.25 94.6565 12.15V18H92.6225V12.456C92.6225 11.568 92.4005 10.89 91.9565 10.422C91.5125 9.942 90.9065 9.702 90.1385 9.702C89.3705 9.702 88.7585 9.942 88.3025 10.422C87.8585 10.89 87.6365 11.568 87.6365 12.456V18H85.6025V12.456C85.6025 11.568 85.3805 10.89 84.9365 10.422C84.4925 9.942 83.8865 9.702 83.1185 9.702C82.3505 9.702 81.7385 9.942 81.2825 10.422C80.8385 10.89 80.6165 11.568 80.6165 12.456V18H78.5645V8.082H80.6165V9.216C80.9525 8.808 81.3785 8.49 81.8945 8.262C82.4105 8.034 82.9625 7.92 83.5505 7.92C84.3425 7.92 85.0505 8.088 85.6745 8.424C86.2985 8.76 86.7785 9.246 87.1145 9.882C87.4145 9.282 87.8825 8.808 88.5185 8.46C89.1545 8.1 89.8385 7.92 90.5705 7.92ZM99.8777 18.162C99.0977 18.162 98.3957 18.024 97.7717 17.748C97.1597 17.46 96.6737 17.076 96.3137 16.596C95.9537 16.104 95.7617 15.558 95.7377 14.958H97.8617C97.8977 15.378 98.0957 15.732 98.4557 16.02C98.8277 16.296 99.2897 16.434 99.8417 16.434C100.418 16.434 100.862 16.326 101.174 16.11C101.498 15.882 101.66 15.594 101.66 15.246C101.66 14.874 101.48 14.598 101.12 14.418C100.772 14.238 100.214 14.04 99.4457 13.824C98.7017 13.62 98.0957 13.422 97.6277 13.23C97.1597 13.038 96.7517 12.744 96.4037 12.348C96.0677 11.952 95.8997 11.43 95.8997 10.782C95.8997 10.254 96.0557 9.774 96.3677 9.342C96.6797 8.898 97.1237 8.55 97.6997 8.298C98.2877 8.046 98.9597 7.92 99.7157 7.92C100.844 7.92 101.75 8.208 102.434 8.784C103.13 9.348 103.502 10.122 103.55 11.106H101.498C101.462 10.662 101.282 10.308 100.958 10.044C100.634 9.78 100.196 9.648 99.6437 9.648C99.1037 9.648 98.6897 9.75 98.4017 9.954C98.1137 10.158 97.9697 10.428 97.9697 10.764C97.9697 11.028 98.0657 11.25 98.2577 11.43C98.4497 11.61 98.6837 11.754 98.9597 11.862C99.2357 11.958 99.6437 12.084 100.184 12.24C100.904 12.432 101.492 12.63 101.948 12.834C102.416 13.026 102.818 13.314 103.154 13.698C103.49 14.082 103.664 14.592 103.676 15.228C103.676 15.792 103.52 16.296 103.208 16.74C102.896 17.184 102.452 17.532 101.876 17.784C101.312 18.036 100.646 18.162 99.8777 18.162Z" fill="white"/>
<path d="M20 3H4C2.897 3 2 3.897 2 5V19C2 20.103 2.897 21 4 21H20C21.103 21 22 20.103 22 19V5C22 3.897 21.103 3 20 3ZM20.001 9C20 9 20 9 20.001 9H19.535L16.868 5H20L20.001 9ZM14.535 9L11.868 5H14.464L17.131 9H14.535ZM12.131 9H9.535L6.869 5H9.465L12.131 9ZM4 5H4.465L7.132 9H4V5Z" fill="white"/>
</svg>
