<svg width="17" height="17" viewBox="0 0 17 17" fill="none" xmlns="http://www.w3.org/2000/svg">
<g clip-path="url(#clip0)">
<path d="M14.676 14.6487L11.6045 11.5717L14.676 14.6487ZM13.3066 7.45947C13.3066 9.00298 12.6935 10.4833 11.602 11.5747C10.5106 12.6661 9.03032 13.2793 7.48681 13.2793C5.9433 13.2793 4.46301 12.6661 3.37158 11.5747C2.28015 10.4833 1.66699 9.00298 1.66699 7.45947C1.66699 5.91596 2.28015 4.43566 3.37158 3.34423C4.46301 2.25281 5.9433 1.63965 7.48681 1.63965C9.03032 1.63965 10.5106 2.25281 11.602 3.34423C12.6935 4.43566 13.3066 5.91596 13.3066 7.45947V7.45947Z" stroke="#373C67" stroke-width="1.36937" stroke-linecap="round"/>
</g>
<defs>
<clipPath id="clip0">
<rect width="16.4324" height="16.4324" fill="white" transform="translate(0.297363 0.270264)"/>
</clipPath>
</defs>
</svg>
